<?xml version="1.0" encoding="UTF-8" standalone="no"?>
<!DOCTYPE svg PUBLIC "-//W3C//DTD SVG 1.1//EN" "http://www.w3.org/Graphics/SVG/1.1/DTD/svg11.dtd">
<svg width="100%" height="100%" viewBox="0 0 1080 1080" version="1.1" xmlns="http://www.w3.org/2000/svg" xmlns:xlink="http://www.w3.org/1999/xlink" xml:space="preserve" xmlns:serif="http://www.serif.com/" style="fill-rule:evenodd;clip-rule:evenodd;stroke-linejoin:round;stroke-miterlimit:2;">
    <g transform="matrix(1.07987,0,0,1.12159,-52.6984,-83.9323)">
        <path d="M548.859,74.834C824.849,74.834 1048.92,290.569 1048.92,556.294C1048.92,822.019 824.849,1037.76 548.859,1037.76C272.869,1037.76 48.801,822.019 48.801,556.294C48.801,290.569 272.869,74.834 548.859,74.834ZM548.859,126.102C795.46,126.102 995.669,318.864 995.669,556.294C995.669,793.724 795.46,986.486 548.859,986.486C302.258,986.486 102.049,793.724 102.049,556.294C102.049,318.864 302.258,126.102 548.859,126.102Z" style="fill:white;"/>
    </g>
</svg>
